<svg width="34" height="35" viewBox="0 0 34 35" fill="none" xmlns="http://www.w3.org/2000/svg">
<mask id="path-1-inside-1_371_12" fill="white">
<path fill-rule="evenodd" clip-rule="evenodd" d="M10.4892 17.1404C10.4892 16.5698 10.039 16.1065 9.48411 16.1065C8.92879 16.1065 8.47856 16.5698 8.47856 17.1406C8.47856 17.7121 8.92879 18.1748 9.48411 18.1748C10.039 18.1748 10.4892 17.7121 10.4892 17.1406L10.4892 17.1404ZM23.5235 15.8088C23.5235 15.2378 23.9733 14.7745 24.5288 14.7745C25.0844 14.7745 25.5342 15.2378 25.5342 15.8086C25.5342 16.3801 25.0844 16.8428 24.529 16.8428C23.9733 16.8428 23.5235 16.3801 23.5235 15.8086L23.5235 15.8088ZM16.7211 6.65011C22.0942 6.65011 24.5505 10.7043 24.6528 10.8769C24.6846 10.9309 24.7054 10.9907 24.7142 11.053C24.723 11.1152 24.7194 11.1786 24.7038 11.2394C24.6882 11.3003 24.6609 11.3574 24.6234 11.4074C24.5858 11.4574 24.5389 11.4993 24.4852 11.5308C24.3765 11.5952 24.2471 11.6138 24.125 11.5824C24.0029 11.5511 23.8979 11.4723 23.8324 11.363C23.7416 11.2103 21.5369 7.60466 16.7468 7.60466C11.9317 7.60466 9.72673 11.2103 9.63518 11.3639C9.56947 11.4728 9.46426 11.5513 9.34218 11.5823C9.2201 11.6134 9.09089 11.5946 8.98233 11.5299C8.92882 11.4985 8.882 11.4566 8.8446 11.4066C8.80719 11.3566 8.77995 11.2996 8.76445 11.2388C8.74895 11.178 8.7455 11.1147 8.7543 11.0526C8.76311 10.9905 8.78399 10.9307 8.81573 10.8769C8.91744 10.7043 11.3738 6.65011 16.7211 6.65011"/>
</mask>
<path fill-rule="evenodd" clip-rule="evenodd" d="M10.4892 17.1404C10.4892 16.5698 10.039 16.1065 9.48411 16.1065C8.92879 16.1065 8.47856 16.5698 8.47856 17.1406C8.47856 17.7121 8.92879 18.1748 9.48411 18.1748C10.039 18.1748 10.4892 17.7121 10.4892 17.1406L10.4892 17.1404ZM23.5235 15.8088C23.5235 15.2378 23.9733 14.7745 24.5288 14.7745C25.0844 14.7745 25.5342 15.2378 25.5342 15.8086C25.5342 16.3801 25.0844 16.8428 24.529 16.8428C23.9733 16.8428 23.5235 16.3801 23.5235 15.8086L23.5235 15.8088ZM16.7211 6.65011C22.0942 6.65011 24.5505 10.7043 24.6528 10.8769C24.6846 10.9309 24.7054 10.9907 24.7142 11.053C24.723 11.1152 24.7194 11.1786 24.7038 11.2394C24.6882 11.3003 24.6609 11.3574 24.6234 11.4074C24.5858 11.4574 24.5389 11.4993 24.4852 11.5308C24.3765 11.5952 24.2471 11.6138 24.125 11.5824C24.0029 11.5511 23.8979 11.4723 23.8324 11.363C23.7416 11.2103 21.5369 7.60466 16.7468 7.60466C11.9317 7.60466 9.72673 11.2103 9.63518 11.3639C9.56947 11.4728 9.46426 11.5513 9.34218 11.5823C9.2201 11.6134 9.09089 11.5946 8.98233 11.5299C8.92882 11.4985 8.882 11.4566 8.8446 11.4066C8.80719 11.3566 8.77995 11.2996 8.76445 11.2388C8.74895 11.178 8.7455 11.1147 8.7543 11.0526C8.76311 10.9905 8.78399 10.9307 8.81573 10.8769C8.91744 10.7043 11.3738 6.65011 16.7211 6.65011" fill="#F4F4F4"/>
<path d="M24.6528 10.8769L25.5148 10.3699L25.513 10.3669L24.6528 10.8769ZM24.4852 11.5308L23.9797 10.6679L23.9752 10.6706L24.4852 11.5308ZM23.8324 11.363L22.9727 11.8738L22.9746 11.877L23.8324 11.363ZM9.63518 11.3639L10.4915 11.8802L10.4941 11.8759L9.63518 11.3639ZM8.98233 11.5299L9.49388 10.6707L9.48905 10.6678L8.98233 11.5299ZM8.81573 10.8769L7.95424 10.3691L7.95422 10.3691L8.81573 10.8769ZM11.4892 17.1404C11.4892 16.0445 10.6179 15.1065 9.48411 15.1065L9.48411 17.1065C9.4823 17.1065 9.47883 17.1059 9.47607 17.1047C9.47408 17.1038 9.4751 17.1038 9.4777 17.1065C9.48031 17.1092 9.48323 17.1133 9.48543 17.1186C9.48737 17.1233 9.48925 17.1302 9.48925 17.1404L11.4892 17.1404ZM9.48411 15.1065C8.35006 15.1065 7.47856 16.0444 7.47856 17.1406L9.47856 17.1406C9.47856 17.1303 9.48046 17.1234 9.48241 17.1186C9.4846 17.1133 9.48751 17.1092 9.49011 17.1065C9.4927 17.1039 9.49372 17.1039 9.49177 17.1047C9.48907 17.1059 9.48571 17.1065 9.48411 17.1065L9.48411 15.1065ZM7.47856 17.1406C7.47856 18.2379 8.35043 19.1748 9.48411 19.1748L9.48411 17.1748C9.48552 17.1748 9.48877 17.1753 9.49147 17.1765C9.49342 17.1774 9.49247 17.1774 9.48997 17.1748C9.48747 17.1722 9.48461 17.1683 9.48244 17.163C9.48051 17.1583 9.47856 17.1513 9.47856 17.1406L7.47856 17.1406ZM9.48411 19.1748C10.6176 19.1748 11.4892 18.2377 11.4892 17.1406L9.48925 17.1406C9.48925 17.1513 9.4873 17.1583 9.48536 17.163C9.48318 17.1683 9.48031 17.1723 9.47779 17.1749C9.47529 17.1775 9.47435 17.1775 9.47635 17.1766C9.47911 17.1754 9.48249 17.1748 9.48411 17.1748L9.48411 19.1748ZM11.4892 17.1406L11.4892 17.1404L9.48925 17.1404L9.48925 17.1406L11.4892 17.1406ZM24.5235 15.8088C24.5235 15.7982 24.5254 15.7912 24.5274 15.7864C24.5296 15.781 24.5325 15.777 24.5351 15.7744C24.5376 15.7718 24.5385 15.7718 24.5365 15.7727C24.5337 15.7739 24.5303 15.7745 24.5288 15.7745L24.5288 13.7745C23.3941 13.7745 22.5235 14.7129 22.5235 15.8088L24.5235 15.8088ZM24.5288 15.7745C24.5273 15.7745 24.524 15.7739 24.5212 15.7727C24.5192 15.7718 24.5201 15.7718 24.5227 15.7744C24.5252 15.777 24.5281 15.7811 24.5303 15.7864C24.5323 15.7912 24.5342 15.7981 24.5342 15.8086L26.5342 15.8086C26.5342 14.7127 25.6635 13.7745 24.5288 13.7745L24.5288 15.7745ZM24.5342 15.8086C24.5342 15.8194 24.5322 15.8265 24.5303 15.8312C24.5281 15.8365 24.5252 15.8405 24.5228 15.843C24.5203 15.8455 24.5195 15.8454 24.5215 15.8446C24.5243 15.8433 24.5276 15.8428 24.529 15.8428L24.529 17.8428C25.6632 17.8428 26.5342 16.9054 26.5342 15.8086L24.5342 15.8086ZM24.529 15.8428C24.529 15.8428 24.5293 15.8428 24.5299 15.8429C24.5305 15.8429 24.5312 15.843 24.532 15.8432C24.5337 15.8436 24.5351 15.844 24.5362 15.8445C24.5382 15.8454 24.5373 15.8454 24.5348 15.8429C24.5324 15.8404 24.5296 15.8365 24.5274 15.8312C24.5255 15.8265 24.5235 15.8194 24.5235 15.8086L22.5235 15.8086C22.5235 16.9057 23.3947 17.8428 24.529 17.8428L24.529 15.8428ZM22.5235 15.8086L22.5235 15.8088L24.5235 15.8088L24.5235 15.8086L22.5235 15.8086ZM16.7211 7.65011C21.5362 7.65011 23.733 11.2862 23.7926 11.3869L25.513 10.3669C25.3681 10.1224 22.6521 5.65011 16.7211 5.65011L16.7211 7.65011ZM23.7909 11.3838C23.7559 11.3244 23.7334 11.2593 23.724 11.1923L25.7045 10.9136C25.6775 10.7221 25.6132 10.5373 25.5148 10.3699L23.7909 11.3838ZM23.724 11.1923C23.7145 11.1252 23.7183 11.0569 23.7352 10.9911L25.6725 11.4877C25.7206 11.3002 25.7314 11.1052 25.7045 10.9136L23.724 11.1923ZM23.7352 10.9911C23.752 10.9253 23.7818 10.8628 23.8235 10.8072L25.4232 12.0075C25.54 11.852 25.6245 11.6752 25.6725 11.4877L23.7352 10.9911ZM23.8235 10.8072C23.8652 10.7516 23.9181 10.704 23.9797 10.6679L24.9907 12.3936C25.1597 12.2946 25.3065 12.1632 25.4232 12.0075L23.8235 10.8072ZM23.9752 10.6706C24.0942 10.6001 24.2378 10.5789 24.3739 10.6139L23.8762 12.551C24.2565 12.6487 24.6588 12.5904 24.9953 12.3909L23.9752 10.6706ZM24.3739 10.6139C24.5096 10.6487 24.6219 10.7351 24.6902 10.8491L22.9746 11.877C23.1738 12.2094 23.4963 12.4534 23.8762 12.551L24.3739 10.6139ZM24.6921 10.8523C24.5565 10.6241 22.0919 6.60466 16.7468 6.60466L16.7468 8.60466C18.8715 8.60466 20.4075 9.39921 21.4307 10.2102C21.9452 10.6181 22.329 11.0299 22.5868 11.3448C22.7154 11.5018 22.8115 11.6335 22.876 11.7267C22.9082 11.7732 22.9323 11.8099 22.9486 11.8353C22.9649 11.8608 22.9729 11.8742 22.9727 11.8738L24.6921 10.8523ZM16.7468 6.60466C11.378 6.60466 8.91303 10.6223 8.77625 10.8518L10.4941 11.8759C10.5404 11.7982 12.4854 8.60466 16.7468 8.60466L16.7468 6.60466ZM8.77882 10.8475C8.84738 10.7338 8.95992 10.6477 9.09562 10.6132L9.58875 12.5515C9.96861 12.4548 10.2916 12.2119 10.4915 11.8802L8.77882 10.8475ZM9.09562 10.6132C9.23168 10.5786 9.37511 10.6 9.49387 10.6707L8.47078 12.3892C8.80668 12.5892 9.20853 12.6482 9.58875 12.5515L9.09562 10.6132ZM9.48905 10.6678C9.55068 10.7041 9.60357 10.7517 9.64523 10.8074L8.04396 12.0057C8.16044 12.1614 8.30696 12.2929 8.47561 12.3921L9.48905 10.6678ZM9.64523 10.8074C9.68687 10.8631 9.71661 10.9257 9.73342 10.9916L7.79548 11.486C7.84329 11.6734 7.92752 11.8501 8.04396 12.0057L9.64523 10.8074ZM9.73342 10.9916C9.75022 11.0575 9.75392 11.1258 9.74441 11.1929L7.76419 10.9123C7.73708 11.1037 7.74767 11.2986 7.79548 11.486L9.73342 10.9916ZM9.74441 11.1929C9.7349 11.26 9.71227 11.3252 9.67725 11.3846L7.95422 10.3691C7.85571 10.5363 7.79131 10.7209 7.76419 10.9123L9.74441 11.1929ZM9.67723 11.3846C9.73604 11.2849 11.9328 7.65011 16.7211 7.65011L16.7211 5.65011C10.8147 5.65011 8.09885 10.1238 7.95424 10.3691L9.67723 11.3846Z" fill="#F4F4F4" mask="url(#path-1-inside-1_371_12)"/>
<path d="M17.0223 0.999999C8.17327 0.999998 0.999708 8.28258 0.999708 17.2661C0.999707 26.2496 8.17327 33.5322 17.0223 33.5322C25.8714 33.5322 33.0449 26.2496 33.0449 17.2661C33.0449 8.28259 25.8714 0.999999 17.0223 0.999999Z" stroke="#F4F4F4"/>
</svg>
